<svg xmlns="http://www.w3.org/2000/svg" xmlns:xlink="http://www.w3.org/1999/xlink" width="907" zoomAndPan="magnify" viewBox="0 0 680.25 171.000002" height="228" preserveAspectRatio="xMidYMid meet" version="1.0"><defs><g/><clipPath id="c51686e483"><path d="M 223 23 L 610.570312 23 L 610.570312 146 L 223 146 Z M 223 23 " clip-rule="nonzero"/></clipPath><clipPath id="14607d8bfa"><path d="M 69.234375 55 L 185 55 L 185 152.707031 L 69.234375 152.707031 Z M 69.234375 55 " clip-rule="nonzero"/></clipPath></defs><g fill="#ffffff" fill-opacity="1"><g transform="translate(519.018293, 140.459155)"><g><path d="M 10.203125 -3.71875 C 10.203125 -2.40625 9.785156 -1.410156 8.953125 -0.734375 C 8.117188 -0.0546875 6.890625 0.28125 5.265625 0.28125 C 4.609375 0.28125 3.878906 0.210938 3.078125 0.078125 C 2.285156 -0.0546875 1.664062 -0.207031 1.21875 -0.375 L 1.21875 -3.640625 L 1.84375 -3.640625 L 2.546875 -1.796875 C 3.242188 -1.148438 4.160156 -0.828125 5.296875 -0.828125 C 7.117188 -0.828125 8.03125 -1.609375 8.03125 -3.171875 C 8.03125 -4.316406 7.3125 -5.132812 5.875 -5.625 L 4.609375 -6.046875 C 3.660156 -6.347656 2.96875 -6.660156 2.53125 -6.984375 C 2.101562 -7.304688 1.769531 -7.695312 1.53125 -8.15625 C 1.300781 -8.625 1.1875 -9.191406 1.1875 -9.859375 C 1.1875 -11.023438 1.582031 -11.941406 2.375 -12.609375 C 3.175781 -13.285156 4.253906 -13.625 5.609375 -13.625 C 6.578125 -13.625 7.789062 -13.476562 9.25 -13.1875 L 9.25 -10.296875 L 8.578125 -10.296875 L 7.984375 -11.828125 C 7.484375 -12.265625 6.695312 -12.484375 5.625 -12.484375 C 4.863281 -12.484375 4.28125 -12.296875 3.875 -11.921875 C 3.476562 -11.546875 3.28125 -11.039062 3.28125 -10.40625 C 3.28125 -9.863281 3.460938 -9.410156 3.828125 -9.046875 C 4.191406 -8.679688 4.738281 -8.375 5.46875 -8.125 C 6.851562 -7.65625 7.757812 -7.3125 8.1875 -7.09375 C 8.613281 -6.882812 8.972656 -6.617188 9.265625 -6.296875 C 9.554688 -5.984375 9.785156 -5.625 9.953125 -5.21875 C 10.117188 -4.8125 10.203125 -4.3125 10.203125 -3.71875 Z M 10.203125 -3.71875 "/></g></g></g><g fill="#ffffff" fill-opacity="1"><g transform="translate(530.262504, 140.459155)"><g><path d="M 4.59375 -14.3125 C 4.59375 -13.332031 4.5625 -12.625 4.5 -12.1875 C 5.175781 -12.582031 5.945312 -12.921875 6.8125 -13.203125 C 7.675781 -13.484375 8.398438 -13.625 8.984375 -13.625 C 10.140625 -13.625 11.007812 -13.285156 11.59375 -12.609375 C 12.175781 -11.941406 12.46875 -10.972656 12.46875 -9.703125 L 12.46875 -0.984375 L 14.078125 -0.640625 L 14.078125 0 L 8.359375 0 L 8.359375 -0.640625 L 10.125 -0.984375 L 10.125 -9.546875 C 10.125 -11.160156 9.34375 -11.96875 7.78125 -11.96875 C 6.894531 -11.96875 5.832031 -11.832031 4.59375 -11.5625 L 4.59375 -0.984375 L 6.390625 -0.640625 L 6.390625 0 L 0.578125 0 L 0.578125 -0.640625 L 2.265625 -0.984375 L 2.265625 -19.078125 L 0.28125 -19.421875 L 0.28125 -20.0625 L 4.59375 -20.0625 Z M 4.59375 -14.3125 "/></g></g></g><g fill="#ffffff" fill-opacity="1"><g transform="translate(544.709269, 140.459155)"><g><path d="M 13.359375 -6.703125 C 13.359375 -2.046875 11.285156 0.28125 7.140625 0.28125 C 5.148438 0.28125 3.644531 -0.3125 2.625 -1.5 C 1.601562 -2.695312 1.09375 -4.429688 1.09375 -6.703125 C 1.09375 -8.941406 1.601562 -10.65625 2.625 -11.84375 C 3.644531 -13.03125 5.1875 -13.625 7.25 -13.625 C 9.269531 -13.625 10.789062 -13.039062 11.8125 -11.875 C 12.84375 -10.71875 13.359375 -8.992188 13.359375 -6.703125 Z M 10.8125 -6.703125 C 10.8125 -8.734375 10.515625 -10.203125 9.921875 -11.109375 C 9.328125 -12.023438 8.398438 -12.484375 7.140625 -12.484375 C 5.910156 -12.484375 5.019531 -12.046875 4.46875 -11.171875 C 3.914062 -10.296875 3.640625 -8.804688 3.640625 -6.703125 C 3.640625 -4.566406 3.921875 -3.050781 4.484375 -2.15625 C 5.046875 -1.269531 5.929688 -0.828125 7.140625 -0.828125 C 8.378906 -0.828125 9.300781 -1.285156 9.90625 -2.203125 C 10.507812 -3.128906 10.8125 -4.628906 10.8125 -6.703125 Z M 10.8125 -6.703125 "/></g></g></g><g fill="#ffffff" fill-opacity="1"><g transform="translate(559.156035, 140.459155)"><g><path d="M 3.671875 -6.671875 L 3.671875 -6.421875 C 3.671875 -5.117188 3.8125 -4.109375 4.09375 -3.390625 C 4.382812 -2.671875 4.828125 -2.125 5.421875 -1.75 C 6.023438 -1.375 6.8125 -1.1875 7.78125 -1.1875 C 8.289062 -1.1875 8.890625 -1.226562 9.578125 -1.3125 C 10.273438 -1.394531 10.851562 -1.488281 11.3125 -1.59375 L 11.3125 -0.796875 C 10.851562 -0.503906 10.234375 -0.25 9.453125 -0.03125 C 8.679688 0.175781 7.890625 0.28125 7.078125 0.28125 C 5.023438 0.28125 3.519531 -0.269531 2.5625 -1.375 C 1.601562 -2.488281 1.125 -4.273438 1.125 -6.734375 C 1.125 -9.046875 1.609375 -10.769531 2.578125 -11.90625 C 3.546875 -13.050781 4.929688 -13.625 6.734375 -13.625 C 10.128906 -13.625 11.828125 -11.691406 11.828125 -7.828125 L 11.828125 -6.671875 Z M 6.734375 -12.484375 C 5.753906 -12.484375 5.003906 -12.085938 4.484375 -11.296875 C 3.960938 -10.515625 3.703125 -9.351562 3.703125 -7.8125 L 9.375 -7.8125 C 9.375 -9.488281 9.15625 -10.6875 8.71875 -11.40625 C 8.289062 -12.125 7.628906 -12.484375 6.734375 -12.484375 Z M 6.734375 -12.484375 "/></g></g></g><g fill="#ffffff" fill-opacity="1"><g transform="translate(571.980361, 140.459155)"><g><path d="M 10.203125 -3.71875 C 10.203125 -2.40625 9.785156 -1.410156 8.953125 -0.734375 C 8.117188 -0.0546875 6.890625 0.28125 5.265625 0.28125 C 4.609375 0.28125 3.878906 0.210938 3.078125 0.078125 C 2.285156 -0.0546875 1.664062 -0.207031 1.21875 -0.375 L 1.21875 -3.640625 L 1.84375 -3.640625 L 2.546875 -1.796875 C 3.242188 -1.148438 4.160156 -0.828125 5.296875 -0.828125 C 7.117188 -0.828125 8.03125 -1.609375 8.03125 -3.171875 C 8.03125 -4.316406 7.3125 -5.132812 5.875 -5.625 L 4.609375 -6.046875 C 3.660156 -6.347656 2.96875 -6.660156 2.53125 -6.984375 C 2.101562 -7.304688 1.769531 -7.695312 1.53125 -8.15625 C 1.300781 -8.625 1.1875 -9.191406 1.1875 -9.859375 C 1.1875 -11.023438 1.582031 -11.941406 2.375 -12.609375 C 3.175781 -13.285156 4.253906 -13.625 5.609375 -13.625 C 6.578125 -13.625 7.789062 -13.476562 9.25 -13.1875 L 9.25 -10.296875 L 8.578125 -10.296875 L 7.984375 -11.828125 C 7.484375 -12.265625 6.695312 -12.484375 5.625 -12.484375 C 4.863281 -12.484375 4.28125 -12.296875 3.875 -11.921875 C 3.476562 -11.546875 3.28125 -11.039062 3.28125 -10.40625 C 3.28125 -9.863281 3.460938 -9.410156 3.828125 -9.046875 C 4.191406 -8.679688 4.738281 -8.375 5.46875 -8.125 C 6.851562 -7.65625 7.757812 -7.3125 8.1875 -7.09375 C 8.613281 -6.882812 8.972656 -6.617188 9.265625 -6.296875 C 9.554688 -5.984375 9.785156 -5.625 9.953125 -5.21875 C 10.117188 -4.8125 10.203125 -4.3125 10.203125 -3.71875 Z M 10.203125 -3.71875 "/></g></g></g><g clip-path="url(#c51686e483)"><path fill="#e8d9c0" d="M 583.089844 106.085938 C 579.730469 107.371094 576.269531 108.292969 572.714844 108.855469 L 571.046875 108.945312 C 567.121094 108.457031 563.628906 106.378906 560.605469 102.730469 C 557.074219 98.554688 554.160156 93.875 551.265625 89.222656 C 549.3125 86.074219 546.800781 80.875 542.535156 80.519531 L 540.199219 80.242188 C 537.183594 80.660156 530.492188 83.738281 519.066406 99.367188 L 506.804688 115.210938 C 503.578125 119.796875 495.476562 131.15625 493.757812 131.3125 C 493.492188 131.355469 493.25 131.292969 493.03125 131.132812 C 492.558594 130.6875 492.972656 129.523438 493.328125 128.746094 C 493.503906 128.359375 493.679688 127.976562 493.835938 127.554688 L 506.285156 95.445312 C 506.722656 94.25 507.179688 92.875 507.628906 91.269531 C 508.050781 89.945312 508.269531 88.585938 508.277344 87.195312 C 508.261719 86.148438 507.917969 85.222656 507.253906 84.410156 C 506.335938 83.304688 504.730469 83.304688 503.78125 83.273438 C 503.542969 83.273438 503.425781 83.273438 503.269531 83.273438 C 500.746094 83.480469 498.78125 87.734375 497.902344 90.027344 C 493.5 97.742188 488.859375 104.101562 483.984375 109.109375 C 477.589844 115.625 470.574219 121.390625 462.949219 126.402344 C 456.429688 130.679688 449.179688 134.15625 441.425781 135.347656 C 447.0625 131.769531 451.460938 128.191406 454.617188 124.613281 C 463.121094 115.671875 474.296875 95.992188 459.609375 86.957031 C 447.53125 79.539062 431.378906 85.972656 421.636719 94.3125 C 418.738281 96.78125 414.820312 100.457031 409.882812 105.34375 C 399.691406 115.378906 389.011719 125.800781 375.773438 131.710938 C 371.957031 133.453125 367.984375 134.664062 363.847656 135.347656 C 369.488281 131.769531 373.886719 128.191406 377.050781 124.613281 C 384.542969 116.742188 393.632812 102.675781 386.941406 91.621094 C 386.109375 90.3125 385.097656 89.160156 383.90625 88.167969 C 382.714844 87.175781 381.398438 86.386719 379.957031 85.808594 C 367.675781 80.535156 353.609375 86.265625 344.054688 94.3125 C 342.941406 95.257812 339.355469 98.59375 332.296875 105.34375 C 329.546875 107.976562 327.085938 110.351562 325.003906 112.355469 C 323.929688 113.394531 322.855469 114.4375 321.78125 115.460938 C 320.773438 116.65625 319.703125 117.847656 318.550781 119.085938 C 317.273438 120.476562 315.910156 121.871094 314.453125 123.296875 C 312.070312 125.609375 309.753906 127.691406 307.523438 129.558594 C 303.753906 132.699219 299.714844 135.445312 295.410156 137.800781 C 292.484375 139.390625 289.425781 140.671875 286.242188 141.644531 L 287.53125 138.695312 L 287.601562 138.53125 L 288.609375 136.148438 L 300.535156 107.714844 L 306.375 107.714844 C 307.144531 107.730469 307.855469 107.535156 308.511719 107.132812 C 309.167969 106.730469 309.664062 106.183594 310 105.492188 C 310.128906 105.207031 310.222656 104.90625 310.273438 104.597656 C 310.328125 104.289062 310.34375 103.976562 310.320312 103.664062 C 310.296875 103.351562 310.234375 103.042969 310.136719 102.746094 C 310.035156 102.449219 309.898438 102.167969 309.726562 101.90625 C 309.558594 101.640625 309.355469 101.402344 309.125 101.1875 C 308.894531 100.976562 308.640625 100.792969 308.363281 100.644531 C 308.089844 100.496094 307.796875 100.382812 307.492188 100.304688 C 307.1875 100.226562 306.878906 100.191406 306.566406 100.191406 L 303.667969 100.191406 L 331.695312 33.300781 C 331.824219 33.007812 331.925781 32.699219 331.996094 32.382812 C 332.066406 32.066406 332.101562 31.746094 332.109375 31.421875 C 332.117188 31.101562 332.09375 30.777344 332.035156 30.460938 C 331.980469 30.140625 331.894531 29.828125 331.777344 29.527344 C 331.65625 29.226562 331.511719 28.9375 331.339844 28.664062 C 331.164062 28.394531 330.964844 28.140625 330.742188 27.90625 C 330.515625 27.671875 330.273438 27.460938 330.007812 27.277344 C 329.742188 27.089844 329.460938 26.933594 329.164062 26.800781 C 328.867188 26.671875 328.5625 26.570312 328.246094 26.503906 C 327.929688 26.433594 327.609375 26.394531 327.285156 26.386719 C 326.960938 26.378906 326.640625 26.40625 326.320312 26.460938 C 326 26.519531 325.691406 26.605469 325.390625 26.722656 C 325.085938 26.839844 324.800781 26.988281 324.527344 27.160156 C 324.253906 27.335938 324 27.535156 323.765625 27.757812 C 323.535156 27.984375 323.324219 28.226562 323.140625 28.492188 C 322.953125 28.757812 322.796875 29.039062 322.664062 29.335938 L 294.078125 97.535156 L 292.957031 100.214844 L 271.722656 100.214844 C 270.628906 98.050781 269.371094 95.980469 267.953125 94.011719 C 267.5625 93.476562 267.179688 92.964844 266.761719 92.457031 C 264.957031 90.210938 262.878906 88.253906 260.53125 86.582031 L 271.617188 60.851562 C 272.636719 58.539062 273.605469 56.152344 274.550781 53.695312 C 275.492188 51.238281 276.289062 48.820312 277 46.425781 C 277.710938 44.035156 278.277344 41.714844 278.730469 39.472656 C 279.164062 37.421875 279.386719 35.351562 279.402344 33.253906 C 279.402344 30.332031 278.726562 27.917969 277.371094 26.015625 C 276.023438 24.136719 273.761719 23.1875 270.609375 23.1875 C 267.949219 23.1875 264.644531 23.957031 260.738281 25.480469 C 258.1875 26.476562 255.710938 27.636719 253.308594 28.960938 C 251.644531 29.875 246.683594 32.722656 239.285156 39.199219 C 237.375 40.871094 226.941406 50.003906 228.339844 52.355469 C 228.621094 52.804688 229.019531 53.09375 229.535156 53.21875 C 230.464844 53.367188 231.324219 52.496094 231.632812 52.175781 C 235.335938 48.417969 245.257812 39.546875 247.949219 37.269531 C 250.285156 35.382812 252.730469 33.65625 255.28125 32.078125 C 260.46875 28.859375 265.066406 26.945312 269.074219 26.332031 C 269.457031 26.308594 269.816406 26.378906 270.15625 26.550781 C 270.496094 26.722656 270.769531 26.96875 270.976562 27.292969 C 271.441406 28.058594 271.652344 28.894531 271.617188 29.789062 C 271.550781 31.78125 271.226562 33.726562 270.644531 35.628906 C 270.003906 37.941406 269.164062 40.46875 268.15625 43.199219 C 267.148438 45.933594 266.015625 48.816406 264.699219 51.839844 C 263.378906 54.863281 262.121094 57.871094 260.882812 60.859375 L 251.742188 82.09375 C 248.40625 81.050781 244.996094 80.542969 241.5 80.570312 C 239.734375 80.601562 237.984375 80.800781 236.253906 81.167969 C 234.199219 81.566406 232.269531 82.300781 230.464844 83.363281 C 228.59375 84.464844 227.027344 85.898438 225.765625 87.667969 C 224.464844 89.480469 223.816406 91.828125 223.816406 94.710938 C 223.820312 96.257812 224.097656 97.75 224.65625 99.195312 C 225.285156 100.757812 226.230469 102.097656 227.496094 103.214844 C 229.050781 104.5625 230.796875 105.578125 232.742188 106.253906 C 235.359375 107.164062 238.054688 107.65625 240.820312 107.738281 L 235.753906 119.601562 L 233.136719 125.734375 L 228.03125 137.664062 C 226.839844 140.460938 228.191406 143.625 231.132812 144.40625 C 231.691406 144.558594 232.261719 144.605469 232.839844 144.550781 C 233.417969 144.496094 233.96875 144.34375 234.492188 144.089844 C 235.015625 143.839844 235.480469 143.5 235.878906 143.082031 C 236.28125 142.664062 236.597656 142.183594 236.828125 141.652344 L 251.417969 107.75 L 271.300781 107.75 C 272.496094 111.613281 273.355469 115.550781 273.882812 119.558594 C 273.941406 120.003906 274.007812 120.453125 274.054688 120.914062 C 274.554688 125.257812 274.792969 129.617188 274.769531 133.988281 C 274.769531 136.375 274.710938 138.164062 274.679688 139.027344 L 274.679688 139.09375 C 274.660156 139.484375 274.679688 139.871094 274.742188 140.257812 C 274.800781 140.644531 274.902344 141.023438 275.042969 141.386719 C 275.179688 141.753906 275.355469 142.101562 275.570312 142.429688 C 275.78125 142.757812 276.023438 143.0625 276.300781 143.339844 C 276.574219 143.617188 276.875 143.863281 277.203125 144.078125 C 277.53125 144.292969 277.875 144.472656 278.238281 144.613281 C 278.605469 144.757812 278.980469 144.859375 279.367188 144.925781 C 279.75 144.988281 280.140625 145.015625 280.53125 144.996094 C 281.125 144.996094 281.753906 144.929688 282.367188 144.878906 C 282.367188 144.917969 282.367188 144.960938 282.367188 145.003906 C 282.964844 144.90625 283.601562 144.789062 284.222656 144.664062 C 284.476562 144.628906 284.726562 144.601562 284.992188 144.5625 L 285.019531 144.488281 C 288.117188 143.757812 291.097656 142.703125 293.964844 141.324219 C 299.316406 138.703125 304.269531 135.46875 308.824219 131.628906 L 309.238281 131.277344 C 310.609375 130.136719 311.984375 128.949219 313.410156 127.699219 L 314.132812 127.019531 C 317.636719 123.828125 320.882812 120.625 323.824219 117.476562 L 323.824219 117.449219 C 324.179688 117.125 324.539062 116.769531 324.902344 116.414062 C 324.890625 116.4375 324.875 116.453125 324.859375 116.46875 C 322.296875 121.652344 321.003906 127.132812 320.988281 132.914062 C 320.941406 135.261719 321.488281 137.457031 322.628906 139.503906 C 324.699219 143.355469 328.59375 145.289062 334.390625 145.289062 C 341.257812 145.289062 349.300781 142.953125 358.515625 138.277344 L 359.339844 138.277344 C 370.992188 138.277344 383.457031 132.589844 396.734375 121.214844 C 396.941406 121.074219 397.140625 120.914062 397.328125 120.746094 C 399.183594 119.464844 400.898438 118.019531 402.480469 116.414062 C 402.40625 116.550781 402.339844 116.6875 402.277344 116.828125 C 399.820312 121.914062 398.582031 127.277344 398.5625 132.929688 C 398.515625 135.265625 399.054688 137.453125 400.1875 139.5 C 402.253906 143.351562 406.148438 145.285156 411.945312 145.285156 C 418.8125 145.285156 426.855469 142.945312 436.066406 138.269531 L 436.894531 138.269531 C 447.480469 138.269531 457.121094 133.671875 465.636719 127.714844 C 474.152344 121.757812 482.929688 115.019531 489.554688 107.03125 C 490.6875 105.664062 492.578125 103.910156 493.359375 102.257812 L 486.828125 119.003906 L 484.265625 125.5625 C 483.113281 128.472656 482.203125 130.929688 481.546875 132.929688 C 480.957031 134.617188 480.648438 136.359375 480.628906 138.152344 C 480.625 138.890625 480.773438 139.597656 481.074219 140.273438 C 481.375 140.945312 481.800781 141.53125 482.351562 142.023438 C 483.207031 142.78125 484.199219 143.230469 485.332031 143.375 C 485.769531 143.433594 486.210938 143.460938 486.652344 143.453125 C 487.75 143.417969 488.828125 143.242188 489.882812 142.921875 C 490.617188 142.699219 491.320312 142.398438 491.988281 142.015625 C 492.328125 141.824219 492.671875 141.617188 493.007812 141.390625 C 494.214844 140.554688 495.320312 139.605469 496.328125 138.539062 C 497.683594 137.113281 498.953125 135.617188 500.132812 134.042969 L 508.214844 123.535156 L 508.355469 123.355469 L 512.417969 118.074219 L 512.875 117.476562 C 514.613281 115.164062 516.296875 112.816406 517.921875 110.441406 C 518.171875 110.09375 518.429688 109.738281 518.695312 109.378906 C 519.804688 107.824219 521.035156 106.214844 522.433594 104.496094 C 525.003906 101.363281 527.253906 98.644531 529.054688 96.5 C 530.855469 94.351562 532.15625 92.742188 532.925781 91.777344 C 534.425781 89.976562 536.246094 88.601562 538.386719 87.648438 C 538.792969 87.511719 539.179688 87.421875 539.179688 87.421875 C 539.304688 87.421875 539.4375 87.382812 539.574219 87.382812 C 542.359375 87.113281 544.695312 89.921875 547.550781 94.484375 L 549.980469 98.402344 C 552.394531 102.949219 555.414062 107.054688 559.042969 110.710938 C 563.214844 114.769531 568.851562 113.964844 571.101562 113.988281 C 585.648438 114.132812 596.59375 102.59375 601.296875 97.597656 C 601.746094 97.121094 602.1875 96.636719 602.621094 96.148438 C 603.039062 95.675781 603.445312 95.191406 603.847656 94.710938 C 604.253906 94.226562 604.613281 93.78125 604.980469 93.308594 C 605.351562 92.839844 605.6875 92.402344 606.027344 91.945312 C 606.367188 91.484375 606.667969 91.066406 606.984375 90.621094 C 607.300781 90.171875 607.582031 89.777344 607.855469 89.347656 C 608.128906 88.921875 608.386719 88.542969 608.644531 88.15625 C 608.898438 87.769531 609.121094 87.398438 609.351562 87.019531 C 609.585938 86.636719 609.777344 86.3125 609.984375 85.957031 L 610.117188 85.730469 C 610.199219 85.617188 610.246094 85.488281 610.253906 85.347656 C 610.25 85.199219 610.199219 85.070312 610.097656 84.960938 C 609.988281 84.859375 609.859375 84.804688 609.710938 84.800781 C 609.585938 84.792969 609.46875 84.816406 609.359375 84.878906 C 609.289062 84.921875 609.230469 84.984375 609.1875 85.054688 L 608.949219 85.394531 C 608.785156 85.632812 608.621094 85.867188 608.445312 86.101562 L 607.910156 86.84375 L 607.3125 87.613281 C 607.109375 87.882812 606.902344 88.152344 606.71875 88.414062 C 606.53125 88.675781 606.277344 88.96875 606.050781 89.242188 C 605.824219 89.515625 605.585938 89.839844 605.347656 90.089844 C 605.105469 90.339844 604.851562 90.683594 604.59375 90.953125 L 603.808594 91.835938 C 603.527344 92.132812 603.253906 92.433594 602.972656 92.722656 C 602.691406 93.015625 602.375 93.320312 602.089844 93.625 C 601.804688 93.929688 601.492188 94.222656 601.171875 94.53125 C 600.851562 94.839844 600.527344 95.128906 600.207031 95.445312 L 599.191406 96.351562 C 598.847656 96.660156 598.496094 96.945312 598.136719 97.257812 C 597.777344 97.566406 597.402344 97.851562 597.035156 98.152344 C 596.664062 98.449219 596.269531 98.746094 595.882812 99.039062 C 595.496094 99.332031 595.089844 99.636719 594.691406 99.910156 C 594.289062 100.183594 593.867188 100.507812 593.449219 100.769531 C 593.03125 101.03125 592.589844 101.328125 592.15625 101.605469 C 591.71875 101.878906 591.265625 102.152344 590.820312 102.414062 C 590.371094 102.675781 589.894531 102.945312 589.429688 103.203125 C 588.964844 103.457031 588.476562 103.714844 587.992188 103.960938 C 587.511719 104.203125 587.003906 104.449219 586.503906 104.679688 C 586 104.914062 585.484375 105.144531 584.96875 105.367188 C 584.457031 105.585938 583.914062 105.808594 583.378906 106.015625 Z M 244.042969 100.21875 L 239.902344 100.21875 C 238.1875 100.253906 236.503906 100.023438 234.859375 99.535156 C 233.601562 99.15625 232.460938 98.5625 231.4375 97.746094 C 230.582031 97.082031 229.917969 96.265625 229.445312 95.292969 C 229.027344 94.441406 228.8125 93.539062 228.804688 92.585938 C 228.792969 91.339844 229.070312 90.164062 229.640625 89.054688 C 230.210938 87.945312 231.007812 87.035156 232.027344 86.320312 C 234.167969 84.675781 237.105469 83.871094 240.820312 83.871094 C 244.105469 83.835938 247.324219 84.285156 250.476562 85.210938 Z M 254.703125 100.21875 L 259.285156 89.636719 C 261.449219 91.21875 263.332031 93.085938 264.929688 95.242188 C 266.128906 96.808594 267.179688 98.46875 268.085938 100.21875 Z M 278.15625 135.335938 C 278.203125 134.777344 278.234375 134.234375 278.234375 133.738281 L 278.234375 132.121094 C 278.242188 127.929688 277.972656 123.757812 277.429688 119.601562 C 276.878906 115.574219 275.992188 111.625 274.769531 107.75 L 289.75 107.75 L 284.65625 119.878906 Z M 351.882812 131.871094 C 351.882812 133.242188 352.71875 134.339844 354.351562 135.183594 C 354.742188 135.402344 355.15625 135.535156 355.601562 135.585938 C 350.648438 138.207031 346.859375 139.5 344.269531 139.5 C 341.75 139.535156 339.382812 138.953125 337.167969 137.757812 C 335.027344 136.566406 333.964844 134.597656 333.964844 131.792969 C 333.957031 128.992188 334.4375 126.277344 335.410156 123.648438 C 337.746094 116.230469 342.453125 109.21875 349.53125 102.613281 C 354.527344 97.949219 361.242188 94.191406 368.015625 92.957031 C 375.105469 91.664062 383.660156 94.949219 383.660156 103.339844 C 383.660156 106.976562 381.945312 111.410156 378.515625 116.640625 C 377.96875 113.613281 375.699219 112.097656 371.707031 112.097656 C 367.722656 112.097656 363.792969 113.820312 359.964844 117.257812 C 354.578125 122.191406 351.882812 127.0625 351.882812 131.871094 Z M 429.441406 131.871094 C 429.441406 133.242188 430.269531 134.339844 431.914062 135.183594 C 432.296875 135.398438 432.707031 135.535156 433.144531 135.585938 C 428.199219 138.207031 424.414062 139.5 421.8125 139.5 C 419.292969 139.539062 416.917969 138.957031 414.699219 137.757812 C 412.558594 136.589844 411.484375 134.601562 411.484375 131.792969 C 411.480469 128.992188 411.964844 126.277344 412.941406 123.648438 C 415.277344 116.230469 419.984375 109.21875 427.0625 102.613281 C 433.753906 96.34375 445.503906 89.738281 454.777344 93.898438 C 464.914062 98.425781 460.628906 109.671875 456.066406 116.617188 C 455.515625 113.589844 453.246094 112.074219 449.25 112.074219 C 445.253906 112.074219 441.339844 113.789062 437.503906 117.214844 C 432.144531 122.175781 429.460938 127.0625 429.457031 131.871094 Z M 429.441406 131.871094 " fill-opacity="1" fill-rule="nonzero"/></g><path fill="#e8d9c0" d="M 215.097656 72.605469 C 215.097656 73.5625 215.046875 74.519531 214.953125 75.476562 C 214.855469 76.429688 214.714844 77.375 214.527344 78.316406 C 214.339844 79.257812 214.105469 80.1875 213.828125 81.105469 C 213.546875 82.023438 213.222656 82.921875 212.855469 83.808594 C 212.488281 84.695312 212.078125 85.558594 211.625 86.40625 C 211.171875 87.25 210.679688 88.074219 210.148438 88.871094 C 209.613281 89.667969 209.042969 90.4375 208.433594 91.179688 C 207.824219 91.917969 207.183594 92.628906 206.503906 93.308594 C 205.824219 93.984375 205.117188 94.628906 204.375 95.238281 C 203.632812 95.84375 202.863281 96.414062 202.066406 96.949219 C 201.269531 97.480469 200.449219 97.972656 199.601562 98.425781 C 198.757812 98.878906 197.890625 99.289062 197.003906 99.65625 C 196.121094 100.023438 195.21875 100.347656 194.300781 100.625 C 193.382812 100.90625 192.453125 101.140625 191.511719 101.328125 C 190.574219 101.515625 189.625 101.65625 188.671875 101.75 C 187.714844 101.847656 186.757812 101.894531 185.800781 101.894531 L 125.042969 101.894531 C 123.160156 101.90625 121.3125 102.152344 119.496094 102.636719 C 117.679688 103.121094 115.953125 103.828125 114.316406 104.757812 C 112.683594 105.6875 111.191406 106.808594 109.84375 108.121094 C 108.496094 109.433594 107.335938 110.894531 106.367188 112.503906 C 106.035156 113.074219 105.585938 113.527344 105.019531 113.867188 C 104.453125 114.203125 103.839844 114.382812 103.183594 114.402344 C 102.863281 114.398438 102.546875 114.359375 102.238281 114.273438 C 101.929688 114.191406 101.636719 114.070312 101.359375 113.910156 C 101.082031 113.75 100.832031 113.558594 100.605469 113.332031 C 100.378906 113.105469 100.183594 112.855469 100.023438 112.578125 C 99.863281 112.300781 99.738281 112.011719 99.65625 111.699219 C 99.570312 111.390625 99.527344 111.078125 99.527344 110.757812 C 99.523438 110.4375 99.566406 110.125 99.644531 109.8125 C 99.726562 109.503906 99.847656 109.210938 100.003906 108.933594 C 101.785156 105.6875 104.117188 102.90625 107 100.582031 C 109.570312 98.554688 112.40625 97.007812 115.503906 95.941406 C 118.597656 94.871094 121.785156 94.34375 125.0625 94.351562 L 185.800781 94.351562 C 187.078125 94.355469 188.34375 94.25 189.601562 94.027344 C 190.855469 93.808594 192.085938 93.480469 193.285156 93.046875 C 194.484375 92.609375 195.636719 92.070312 196.738281 91.433594 C 197.84375 90.792969 198.882812 90.0625 199.859375 89.238281 C 200.835938 88.417969 201.730469 87.515625 202.546875 86.535156 C 203.363281 85.550781 204.085938 84.507812 204.71875 83.398438 C 205.351562 82.289062 205.878906 81.136719 206.308594 79.933594 C 206.738281 78.730469 207.058594 77.5 207.269531 76.242188 C 207.484375 75.03125 207.589844 73.808594 207.589844 72.574219 C 207.59375 71.832031 207.554688 71.09375 207.46875 70.355469 C 207.40625 69.691406 207.308594 69.03125 207.183594 68.378906 C 207.054688 67.722656 206.898438 67.074219 206.710938 66.433594 C 206.527344 65.792969 206.3125 65.160156 206.066406 64.539062 C 205.820312 63.917969 205.550781 63.308594 205.25 62.714844 C 204.949219 62.117188 204.621094 61.539062 204.265625 60.972656 C 203.910156 60.40625 203.53125 59.859375 203.125 59.328125 C 202.722656 58.796875 202.292969 58.285156 201.839844 57.796875 C 201.390625 57.304688 200.914062 56.835938 200.421875 56.386719 C 199.925781 55.941406 199.410156 55.515625 198.875 55.117188 C 198.339844 54.714844 197.789062 54.34375 197.21875 53.992188 C 196.652344 53.644531 196.066406 53.324219 195.46875 53.027344 C 194.871094 52.730469 194.257812 52.464844 193.636719 52.226562 C 193.011719 51.988281 192.378906 51.777344 191.734375 51.597656 C 191.09375 51.417969 190.445312 51.269531 189.789062 51.148438 C 189.128906 51.027344 188.46875 50.9375 187.804688 50.878906 C 187.140625 50.820312 186.472656 50.789062 185.804688 50.792969 L 131.25 50.792969 L 115.3125 17.035156 L 159.277344 17.035156 C 163.058594 17.078125 172.652344 18.007812 180.148438 25.730469 C 182.308594 27.960938 184.050781 30.484375 185.371094 33.296875 C 185.640625 33.867188 185.757812 34.464844 185.71875 35.09375 C 185.679688 35.722656 185.492188 36.300781 185.152344 36.832031 C 184.8125 37.371094 184.363281 37.792969 183.808594 38.097656 C 183.25 38.40625 182.65625 38.558594 182.019531 38.554688 C 181.3125 38.550781 180.660156 38.355469 180.058594 37.980469 C 179.460938 37.601562 179.003906 37.097656 178.691406 36.460938 C 178.242188 35.566406 177.734375 34.707031 177.164062 33.882812 C 176.597656 33.058594 175.972656 32.277344 175.296875 31.539062 C 174.621094 30.800781 173.894531 30.113281 173.121094 29.476562 C 172.347656 28.839844 171.535156 28.257812 170.683594 27.734375 C 169.828125 27.210938 168.945312 26.75 168.027344 26.347656 C 167.109375 25.945312 166.167969 25.609375 165.203125 25.339844 C 164.238281 25.070312 163.261719 24.867188 162.269531 24.734375 C 161.273438 24.597656 160.277344 24.53125 159.277344 24.535156 L 126.480469 24.535156 L 135.246094 43.136719 L 135.328125 43.300781 L 182.757812 43.300781 C 183.515625 43.300781 184.273438 43.300781 185.027344 43.300781 C 187.570312 43.253906 190.085938 43.511719 192.570312 44.070312 C 193.9375 44.398438 195.277344 44.824219 196.589844 45.34375 C 197.941406 45.882812 199.25 46.523438 200.507812 47.257812 C 201.765625 47.996094 202.964844 48.820312 204.101562 49.734375 C 205.238281 50.648438 206.300781 51.640625 207.289062 52.714844 C 208.277344 53.785156 209.179688 54.925781 210 56.132812 C 210.820312 57.339844 211.542969 58.601562 212.175781 59.914062 C 212.808594 61.230469 213.335938 62.582031 213.765625 63.976562 C 214.195312 65.371094 214.523438 66.789062 214.742188 68.230469 C 214.960938 69.671875 215.070312 71.121094 215.074219 72.582031 Z M 215.097656 72.605469 " fill-opacity="1" fill-rule="nonzero"/><g clip-path="url(#14607d8bfa)"><path fill="#e8d9c0" d="M 184.40625 60.929688 C 183.503906 62.570312 182.453125 64.109375 181.257812 65.550781 C 180.082031 66.960938 178.777344 68.234375 177.34375 69.378906 C 174.964844 71.265625 172.351562 72.738281 169.503906 73.796875 C 166.203125 75.011719 162.796875 75.605469 159.28125 75.585938 L 104.632812 75.585938 C 98.476562 75.585938 92.109375 75.519531 86.585938 79.164062 C 85.332031 79.984375 84.179688 80.925781 83.117188 81.984375 C 82.058594 83.046875 81.121094 84.203125 80.300781 85.453125 C 79.476562 86.707031 78.792969 88.03125 78.246094 89.425781 C 77.699219 90.820312 77.296875 92.253906 77.046875 93.730469 C 76.835938 94.945312 76.730469 96.167969 76.730469 97.398438 C 76.726562 98.140625 76.765625 98.875 76.84375 99.613281 C 76.96875 100.90625 77.210938 102.175781 77.566406 103.425781 C 77.921875 104.675781 78.386719 105.882812 78.960938 107.050781 C 79.535156 108.214844 80.207031 109.320312 80.976562 110.367188 C 81.75 111.414062 82.609375 112.382812 83.554688 113.273438 C 84.5 114.164062 85.515625 114.960938 86.605469 115.671875 C 87.695312 116.378906 88.839844 116.984375 90.039062 117.488281 C 91.234375 117.988281 92.46875 118.382812 93.738281 118.664062 C 95.007812 118.941406 96.289062 119.109375 97.589844 119.160156 C 97.894531 119.160156 98.183594 119.160156 98.507812 119.160156 L 153.074219 119.160156 L 169.015625 152.992188 L 125.046875 152.992188 C 121.195312 152.933594 111.421875 151.945312 103.910156 144.050781 C 101.878906 141.902344 100.230469 139.492188 98.964844 136.820312 C 98.695312 136.257812 98.578125 135.660156 98.617188 135.035156 C 98.65625 134.410156 98.84375 133.832031 99.179688 133.304688 C 99.515625 132.753906 99.960938 132.324219 100.519531 132.007812 C 101.082031 131.691406 101.679688 131.53125 102.324219 131.527344 C 103.03125 131.53125 103.6875 131.722656 104.285156 132.097656 C 104.886719 132.472656 105.34375 132.976562 105.65625 133.613281 C 106.109375 134.503906 106.617188 135.359375 107.1875 136.179688 C 107.757812 137 108.382812 137.773438 109.058594 138.507812 C 109.738281 139.242188 110.460938 139.925781 111.234375 140.558594 C 112.003906 141.191406 112.816406 141.769531 113.667969 142.289062 C 114.519531 142.808594 115.40625 143.269531 116.320312 143.667969 C 117.234375 144.066406 118.171875 144.402344 119.136719 144.667969 C 120.097656 144.9375 121.070312 145.140625 122.0625 145.273438 C 123.050781 145.40625 124.042969 145.472656 125.042969 145.46875 L 157.839844 145.46875 L 149.074219 126.875 L 148.992188 126.703125 L 98.382812 126.703125 C 96.871094 126.695312 95.367188 126.570312 93.875 126.332031 C 92.382812 126.089844 90.917969 125.738281 89.480469 125.269531 C 88.042969 124.804688 86.652344 124.230469 85.300781 123.546875 C 83.953125 122.863281 82.664062 122.082031 81.4375 121.199219 C 80.210938 120.316406 79.058594 119.34375 77.980469 118.285156 C 76.90625 117.222656 75.914062 116.085938 75.015625 114.871094 C 74.113281 113.660156 73.3125 112.382812 72.609375 111.046875 C 71.90625 109.707031 71.308594 108.324219 70.820312 106.894531 C 70.332031 105.460938 69.957031 104.003906 69.695312 102.515625 C 69.429688 101.027344 69.285156 99.527344 69.253906 98.015625 C 69.222656 96.503906 69.308594 95 69.511719 93.5 C 69.714844 92.003906 70.03125 90.53125 70.460938 89.082031 C 70.890625 87.632812 71.433594 86.226562 72.082031 84.859375 C 72.730469 83.496094 73.480469 82.1875 74.328125 80.9375 C 75.179688 79.6875 76.125 78.511719 77.15625 77.410156 C 78.191406 76.304688 79.300781 75.289062 80.492188 74.359375 C 87.070312 69.1875 96.472656 68.101562 103.222656 68.101562 L 159.277344 68.101562 C 161.171875 68.097656 163.035156 67.847656 164.863281 67.355469 C 166.695312 66.867188 168.429688 66.152344 170.074219 65.210938 C 171.71875 64.269531 173.21875 63.136719 174.566406 61.808594 C 175.917969 60.476562 177.074219 59 178.042969 57.371094 C 178.203125 57.09375 178.398438 56.847656 178.625 56.625 C 178.847656 56.398438 179.101562 56.210938 179.375 56.050781 C 179.652344 55.894531 179.945312 55.773438 180.25 55.691406 C 180.558594 55.609375 180.871094 55.570312 181.1875 55.570312 C 181.507812 55.570312 181.820312 55.609375 182.125 55.691406 C 182.433594 55.773438 182.722656 55.894531 183 56.050781 C 183.277344 56.210938 183.527344 56.398438 183.753906 56.625 C 183.980469 56.847656 184.171875 57.09375 184.332031 57.371094 C 184.660156 57.914062 184.832031 58.503906 184.84375 59.140625 C 184.855469 59.773438 184.710938 60.371094 184.40625 60.929688 Z M 184.40625 60.929688 " fill-opacity="1" fill-rule="nonzero"/></g></svg>