<svg xmlns="http://www.w3.org/2000/svg" xmlns:xlink="http://www.w3.org/1999/xlink" width="1024" zoomAndPan="magnify" viewBox="0 0 768 767.999994" height="1024" preserveAspectRatio="xMidYMid meet" version="1.0"><defs><clipPath id="9d4fc27a78"><path d="M 175 51.664062 L 741 51.664062 L 741 528 L 175 528 Z M 175 51.664062 " clip-rule="nonzero"/></clipPath><clipPath id="29d3f249ce"><path d="M 27 239 L 593 239 L 593 716.164062 L 27 716.164062 Z M 27 239 " clip-rule="nonzero"/></clipPath></defs><g clip-path="url(#9d4fc27a78)"><path fill="#e8d9c0" d="M 741 323.210938 C 740.996094 325.554688 740.9375 327.898438 740.816406 330.238281 C 740.699219 332.582031 740.523438 334.917969 740.289062 337.253906 C 740.058594 339.585938 739.769531 341.910156 739.421875 344.230469 C 739.074219 346.550781 738.671875 348.859375 738.210938 351.15625 C 737.75 353.457031 737.234375 355.742188 736.660156 358.019531 C 736.089844 360.292969 735.460938 362.550781 734.777344 364.792969 C 734.097656 367.035156 733.359375 369.261719 732.566406 371.46875 C 731.773438 373.675781 730.929688 375.863281 730.027344 378.027344 C 729.128906 380.195312 728.175781 382.335938 727.171875 384.457031 C 726.167969 386.574219 725.113281 388.667969 724.007812 390.734375 C 722.898438 392.800781 721.742188 394.839844 720.535156 396.851562 C 719.328125 398.863281 718.074219 400.84375 716.769531 402.792969 C 715.464844 404.742188 714.113281 406.65625 712.714844 408.539062 C 711.316406 410.421875 709.875 412.269531 708.386719 414.082031 C 706.898438 415.894531 705.363281 417.667969 703.789062 419.40625 C 702.214844 421.144531 700.597656 422.839844 698.9375 424.5 C 697.277344 426.15625 695.578125 427.773438 693.839844 429.347656 C 692.101562 430.921875 690.328125 432.453125 688.515625 433.941406 C 686.703125 435.429688 684.851562 436.871094 682.96875 438.269531 C 681.085938 439.664062 679.167969 441.015625 677.21875 442.320312 C 675.269531 443.621094 673.285156 444.875 671.273438 446.082031 C 669.261719 447.289062 667.222656 448.445312 665.15625 449.550781 C 663.085938 450.65625 660.992188 451.710938 658.871094 452.714844 C 656.753906 453.71875 654.609375 454.671875 652.441406 455.570312 C 650.277344 456.46875 648.089844 457.3125 645.878906 458.105469 C 643.671875 458.894531 641.445312 459.632812 639.203125 460.3125 C 636.957031 460.996094 634.699219 461.625 632.421875 462.195312 C 630.148438 462.765625 627.859375 463.28125 625.558594 463.742188 C 623.261719 464.199219 620.949219 464.605469 618.628906 464.949219 C 616.308594 465.296875 613.984375 465.585938 611.648438 465.816406 C 609.3125 466.050781 606.976562 466.226562 604.632812 466.34375 C 602.289062 466.460938 599.945312 466.519531 597.601562 466.523438 L 300.183594 466.523438 C 297.894531 466.535156 295.609375 466.617188 293.324219 466.777344 C 291.039062 466.933594 288.761719 467.164062 286.492188 467.464844 C 284.222656 467.769531 281.964844 468.144531 279.71875 468.589844 C 277.472656 469.039062 275.242188 469.558594 273.03125 470.148438 C 270.816406 470.738281 268.625 471.398438 266.457031 472.128906 C 264.285156 472.855469 262.140625 473.65625 260.023438 474.523438 C 257.902344 475.390625 255.8125 476.324219 253.753906 477.324219 C 251.695312 478.328125 249.667969 479.394531 247.679688 480.523438 C 245.6875 481.652344 243.734375 482.847656 241.820312 484.101562 C 239.90625 485.359375 238.03125 486.671875 236.203125 488.046875 C 234.371094 489.425781 232.585938 490.855469 230.847656 492.347656 C 229.109375 493.835938 227.417969 495.378906 225.777344 496.976562 C 224.140625 498.574219 222.550781 500.222656 221.019531 501.921875 C 219.484375 503.621094 218.003906 505.367188 216.582031 507.160156 C 215.160156 508.953125 213.796875 510.792969 212.492188 512.671875 C 211.1875 514.554688 209.941406 516.476562 208.761719 518.4375 C 207.964844 519.808594 207.007812 521.058594 205.894531 522.1875 C 204.777344 523.316406 203.539062 524.289062 202.175781 525.097656 C 200.808594 525.910156 199.367188 526.539062 197.839844 526.980469 C 196.316406 527.421875 194.761719 527.664062 193.175781 527.710938 L 193.144531 527.710938 C 192.757812 527.710938 192.371094 527.695312 191.980469 527.671875 C 191.59375 527.644531 191.207031 527.605469 190.824219 527.554688 C 190.4375 527.503906 190.054688 527.441406 189.675781 527.363281 C 189.292969 527.289062 188.914062 527.203125 188.539062 527.101562 C 188.164062 527 187.792969 526.886719 187.425781 526.765625 C 187.058594 526.640625 186.695312 526.503906 186.335938 526.355469 C 185.976562 526.207031 185.625 526.046875 185.273438 525.875 C 184.925781 525.703125 184.582031 525.523438 184.246094 525.328125 C 183.910156 525.136719 183.582031 524.933594 183.257812 524.71875 C 182.933594 524.503906 182.617188 524.277344 182.308594 524.042969 C 182 523.808594 181.699219 523.5625 181.40625 523.308594 C 181.113281 523.050781 180.828125 522.789062 180.554688 522.515625 C 180.277344 522.242188 180.011719 521.960938 179.753906 521.667969 C 179.496094 521.378906 179.25 521.078125 179.011719 520.773438 C 178.773438 520.464844 178.542969 520.152344 178.328125 519.832031 C 178.109375 519.507812 177.902344 519.179688 177.707031 518.84375 C 177.511719 518.511719 177.324219 518.167969 177.152344 517.824219 C 176.976562 517.476562 176.816406 517.125 176.664062 516.765625 C 176.511719 516.40625 176.375 516.046875 176.246094 515.679688 C 176.117188 515.3125 176.003906 514.941406 175.898438 514.566406 C 175.796875 514.195312 175.703125 513.816406 175.625 513.4375 C 175.546875 513.058594 175.480469 512.675781 175.425781 512.289062 C 175.371094 511.90625 175.328125 511.519531 175.300781 511.132812 C 175.273438 510.746094 175.253906 510.359375 175.25 509.96875 C 175.246094 509.582031 175.257812 509.195312 175.277344 508.808594 C 175.300781 508.417969 175.332031 508.03125 175.378906 507.648438 C 175.425781 507.261719 175.484375 506.878906 175.558594 506.496094 C 175.628906 506.117188 175.710938 505.738281 175.808594 505.359375 C 175.902344 504.984375 176.011719 504.613281 176.132812 504.242188 C 176.253906 503.875 176.386719 503.507812 176.527344 503.148438 C 176.671875 502.789062 176.828125 502.433594 176.996094 502.082031 C 177.164062 501.730469 177.339844 501.386719 177.53125 501.046875 C 181.855469 493.210938 186.898438 485.867188 192.660156 479.019531 C 198.421875 472.167969 204.792969 465.941406 211.773438 460.335938 C 218.027344 455.414062 224.648438 451.042969 231.632812 447.230469 C 238.621094 443.417969 245.875 440.214844 253.402344 437.621094 C 260.925781 435.027344 268.613281 433.078125 276.464844 431.773438 C 284.320312 430.46875 292.226562 429.832031 300.183594 429.855469 L 597.601562 429.855469 C 599.15625 429.859375 600.714844 429.828125 602.269531 429.765625 C 603.828125 429.699219 605.382812 429.601562 606.933594 429.46875 C 608.484375 429.335938 610.03125 429.167969 611.578125 428.96875 C 613.121094 428.769531 614.660156 428.535156 616.195312 428.265625 C 617.730469 427.996094 619.257812 427.695312 620.777344 427.359375 C 622.300781 427.023438 623.8125 426.65625 625.316406 426.253906 C 626.820312 425.851562 628.316406 425.417969 629.804688 424.949219 C 631.289062 424.480469 632.761719 423.980469 634.226562 423.449219 C 635.691406 422.914062 637.140625 422.351562 638.582031 421.753906 C 640.019531 421.15625 641.445312 420.53125 642.855469 419.871094 C 644.265625 419.210938 645.660156 418.523438 647.042969 417.800781 C 648.421875 417.082031 649.789062 416.332031 651.136719 415.550781 C 652.484375 414.769531 653.8125 413.960938 655.125 413.121094 C 656.4375 412.28125 657.730469 411.414062 659.003906 410.519531 C 660.277344 409.625 661.53125 408.699219 662.765625 407.75 C 664 406.796875 665.210938 405.820312 666.402344 404.816406 C 667.589844 403.8125 668.757812 402.78125 669.902344 401.726562 C 671.050781 400.671875 672.171875 399.589844 673.269531 398.488281 C 674.363281 397.382812 675.4375 396.253906 676.484375 395.101562 C 677.535156 393.949219 678.554688 392.773438 679.550781 391.578125 C 680.546875 390.382812 681.515625 389.164062 682.460938 387.921875 C 683.402344 386.683594 684.316406 385.425781 685.203125 384.144531 C 686.089844 382.863281 686.949219 381.566406 687.78125 380.25 C 688.609375 378.929688 689.410156 377.597656 690.179688 376.242188 C 690.953125 374.890625 691.695312 373.523438 692.40625 372.136719 C 693.117188 370.75 693.796875 369.351562 694.445312 367.9375 C 695.09375 366.519531 695.710938 365.089844 696.296875 363.648438 C 696.886719 362.207031 697.441406 360.753906 697.960938 359.285156 C 698.484375 357.820312 698.976562 356.339844 699.433594 354.851562 C 699.890625 353.363281 700.3125 351.867188 700.707031 350.359375 C 701.097656 348.851562 701.457031 347.339844 701.78125 345.816406 C 702.105469 344.292969 702.398438 342.765625 702.652344 341.226562 C 703.710938 335.269531 704.234375 329.261719 704.226562 323.210938 C 704.246094 319.578125 704.050781 315.957031 703.640625 312.347656 C 703.480469 310.722656 703.28125 309.105469 703.046875 307.488281 C 702.808594 305.875 702.539062 304.265625 702.226562 302.664062 C 701.917969 301.058594 701.570312 299.464844 701.1875 297.878906 C 700.804688 296.292969 700.386719 294.714844 699.929688 293.148438 C 699.472656 291.582031 698.980469 290.023438 698.453125 288.480469 C 697.925781 286.9375 697.363281 285.402344 696.765625 283.886719 C 696.167969 282.367188 695.535156 280.863281 694.867188 279.375 C 694.199219 277.882812 693.496094 276.410156 692.761719 274.953125 C 692.027344 273.496094 691.257812 272.058594 690.453125 270.636719 C 689.652344 269.214844 688.820312 267.8125 687.953125 266.429688 C 687.085938 265.042969 686.1875 263.683594 685.257812 262.339844 C 684.328125 261 683.367188 259.679688 682.378906 258.382812 C 681.386719 257.082031 680.367188 255.808594 679.316406 254.558594 C 678.269531 253.308594 677.191406 252.082031 676.085938 250.882812 C 674.980469 249.679688 673.847656 248.507812 672.6875 247.359375 C 671.527344 246.210938 670.339844 245.085938 669.128906 243.992188 C 667.917969 242.898438 666.679688 241.835938 665.421875 240.796875 C 664.160156 239.761719 662.875 238.753906 661.566406 237.773438 C 660.261719 236.796875 658.929688 235.851562 657.582031 234.933594 C 656.230469 234.015625 654.859375 233.132812 653.464844 232.277344 C 652.074219 231.425781 650.664062 230.605469 649.234375 229.816406 C 647.804688 229.027344 646.355469 228.273438 644.890625 227.550781 C 643.429688 226.828125 641.949219 226.140625 640.453125 225.488281 C 638.953125 224.835938 637.445312 224.214844 635.917969 223.632812 C 634.394531 223.050781 632.859375 222.5 631.308594 221.988281 C 629.757812 221.476562 628.195312 220.996094 626.625 220.558594 C 625.050781 220.117188 623.46875 219.710938 621.878906 219.34375 C 620.289062 218.976562 618.691406 218.644531 617.085938 218.351562 C 615.480469 218.054688 613.867188 217.796875 612.25 217.578125 C 610.632812 217.359375 609.007812 217.175781 607.382812 217.03125 C 605.757812 216.882812 604.128906 216.777344 602.496094 216.707031 C 600.863281 216.636719 599.234375 216.605469 597.601562 216.609375 L 330.574219 216.609375 L 252.546875 51.304688 L 467.757812 51.304688 C 486.269531 51.511719 533.230469 56.066406 569.957031 93.839844 C 580.53125 104.769531 589.054688 117.117188 595.527344 130.878906 C 596.179688 132.246094 596.648438 133.675781 596.9375 135.164062 C 597.222656 136.652344 597.320312 138.15625 597.226562 139.667969 C 597.128906 141.183594 596.847656 142.660156 596.375 144.101562 C 595.902344 145.542969 595.257812 146.902344 594.4375 148.175781 C 593.625 149.472656 592.664062 150.644531 591.550781 151.695312 C 590.4375 152.746094 589.210938 153.640625 587.871094 154.378906 C 586.53125 155.117188 585.121094 155.671875 583.636719 156.050781 C 582.15625 156.429688 580.648438 156.617188 579.117188 156.613281 C 577.417969 156.59375 575.75 156.34375 574.117188 155.863281 C 572.488281 155.382812 570.953125 154.6875 569.511719 153.777344 C 568.074219 152.871094 566.789062 151.785156 565.652344 150.515625 C 564.515625 149.25 563.574219 147.851562 562.828125 146.324219 C 561.726562 144.140625 560.554688 141.996094 559.304688 139.890625 C 558.058594 137.785156 556.738281 135.726562 555.347656 133.714844 C 553.953125 131.703125 552.496094 129.742188 550.96875 127.828125 C 549.441406 125.917969 547.847656 124.0625 546.191406 122.261719 C 544.535156 120.460938 542.820312 118.71875 541.042969 117.035156 C 539.265625 115.351562 537.433594 113.734375 535.542969 112.179688 C 533.65625 110.625 531.714844 109.136719 529.722656 107.714844 C 527.730469 106.296875 525.691406 104.945312 523.601562 103.667969 C 521.515625 102.386719 519.390625 101.183594 517.21875 100.050781 C 515.050781 98.917969 512.84375 97.863281 510.601562 96.886719 C 508.359375 95.90625 506.082031 95.007812 503.777344 94.1875 C 501.472656 93.363281 499.140625 92.625 496.785156 91.964844 C 494.429688 91.304688 492.050781 90.730469 489.65625 90.234375 C 487.257812 89.738281 484.847656 89.328125 482.421875 89 C 479.996094 88.671875 477.5625 88.429688 475.121094 88.273438 C 472.679688 88.113281 470.234375 88.039062 467.785156 88.050781 L 307.242188 88.050781 L 350.160156 179.054688 L 350.558594 179.878906 L 575.324219 179.878906 C 577.78125 179.878906 580.25 179.878906 582.675781 179.878906 C 586.382812 179.878906 590.027344 179.878906 593.777344 179.878906 C 606.234375 179.644531 618.542969 180.898438 630.695312 183.640625 C 637.421875 185.265625 643.992188 187.363281 650.414062 189.933594 C 653.726562 191.253906 656.984375 192.695312 660.1875 194.261719 C 663.390625 195.824219 666.535156 197.503906 669.613281 199.300781 C 672.691406 201.097656 675.703125 203.007812 678.640625 205.027344 C 681.578125 207.046875 684.433594 209.175781 687.214844 211.410156 C 689.992188 213.640625 692.6875 215.972656 695.292969 218.40625 C 697.898438 220.839844 700.410156 223.367188 702.828125 225.984375 C 705.246094 228.605469 707.566406 231.308594 709.78125 234.101562 C 712 236.894531 714.109375 239.761719 716.113281 242.710938 C 718.117188 245.660156 720.011719 248.679688 721.789062 251.765625 C 723.570312 254.855469 725.230469 258.007812 726.777344 261.21875 C 728.324219 264.429688 729.746094 267.695312 731.050781 271.015625 C 732.351562 274.332031 733.53125 277.695312 734.582031 281.097656 C 735.636719 284.503906 736.558594 287.945312 737.355469 291.417969 C 738.15625 294.894531 738.820312 298.390625 739.359375 301.914062 C 739.894531 305.4375 740.300781 308.976562 740.574219 312.53125 C 740.847656 316.085938 740.992188 319.644531 741 323.210938 Z M 741 323.210938 " fill-opacity="1" fill-rule="nonzero"/></g><g clip-path="url(#29d3f249ce)"><path fill="#e8d9c0" d="M 590.761719 266.082031 C 586.371094 274.105469 581.257812 281.644531 575.429688 288.699219 C 569.691406 295.589844 563.320312 301.828125 556.3125 307.425781 C 544.628906 316.675781 531.796875 323.898438 517.820312 329.089844 C 509.820312 332.054688 501.625 334.28125 493.222656 335.777344 C 484.824219 337.269531 476.359375 338.003906 467.828125 337.980469 L 209.320312 337.980469 C 206.378906 337.980469 203.304688 337.980469 200.320312 337.980469 C 170.207031 337.832031 139.054688 337.65625 112 355.339844 C 108.945312 357.34375 106.003906 359.503906 103.167969 361.8125 C 100.335938 364.121094 97.632812 366.566406 95.050781 369.152344 C 92.46875 371.738281 90.027344 374.453125 87.726562 377.289062 C 85.421875 380.125 83.273438 383.074219 81.273438 386.128906 C 79.273438 389.1875 77.4375 392.339844 75.761719 395.585938 C 74.085938 398.832031 72.582031 402.15625 71.246094 405.558594 C 69.914062 408.960938 68.753906 412.417969 67.777344 415.9375 C 66.796875 419.457031 66.003906 423.019531 65.390625 426.621094 C 64.328125 432.535156 63.785156 438.496094 63.757812 444.507812 C 63.746094 448.128906 63.933594 451.738281 64.316406 455.339844 C 64.472656 456.917969 64.660156 458.492188 64.886719 460.0625 C 65.113281 461.632812 65.371094 463.195312 65.667969 464.753906 C 65.964844 466.3125 66.292969 467.863281 66.660156 469.40625 C 67.023438 470.949219 67.421875 472.484375 67.855469 474.011719 C 68.289062 475.535156 68.757812 477.050781 69.261719 478.558594 C 69.761719 480.0625 70.296875 481.554688 70.867188 483.035156 C 71.433594 484.515625 72.039062 485.980469 72.671875 487.4375 C 73.304688 488.890625 73.972656 490.328125 74.671875 491.753906 C 75.371094 493.175781 76.101562 494.582031 76.863281 495.972656 C 77.628906 497.367188 78.421875 498.738281 79.246094 500.09375 C 80.066406 501.449219 80.921875 502.785156 81.804688 504.101562 C 82.691406 505.421875 83.601562 506.71875 84.546875 507.992188 C 85.488281 509.269531 86.457031 510.523438 87.457031 511.757812 C 88.453125 512.988281 89.480469 514.199219 90.53125 515.386719 C 91.585938 516.574219 92.664062 517.734375 93.769531 518.875 C 94.875 520.011719 96.003906 521.125 97.15625 522.214844 C 98.3125 523.300781 99.492188 524.363281 100.691406 525.398438 C 101.894531 526.433594 103.121094 527.441406 104.367188 528.417969 C 105.617188 529.398438 106.882812 530.351562 108.175781 531.273438 C 109.464844 532.199219 110.773438 533.089844 112.105469 533.957031 C 113.4375 534.820312 114.785156 535.65625 116.152344 536.457031 C 117.519531 537.261719 118.90625 538.035156 120.308594 538.777344 C 121.710938 539.519531 123.128906 540.230469 124.5625 540.90625 C 125.996094 541.585938 127.445312 542.230469 128.910156 542.84375 C 130.371094 543.457031 131.847656 544.039062 133.339844 544.585938 C 134.828125 545.132812 136.328125 545.644531 137.839844 546.125 C 139.351562 546.605469 140.875 547.050781 142.40625 547.460938 C 143.941406 547.875 145.480469 548.25 147.03125 548.59375 C 148.578125 548.9375 150.136719 549.246094 151.699219 549.515625 C 153.261719 549.789062 154.828125 550.027344 156.402344 550.230469 C 157.976562 550.433594 159.554688 550.597656 161.136719 550.730469 C 162.71875 550.863281 164.300781 550.960938 165.886719 551.019531 C 167.355469 551.019531 168.828125 551.109375 170.386719 551.109375 L 437.410156 551.109375 L 515.425781 716.46875 L 300.214844 716.46875 C 281.351562 716.175781 233.519531 711.324219 196.734375 672.554688 C 186.796875 662.03125 178.742188 650.230469 172.5625 637.148438 C 171.914062 635.785156 171.445312 634.363281 171.15625 632.882812 C 170.867188 631.402344 170.773438 629.910156 170.863281 628.40625 C 170.957031 626.898438 171.238281 625.429688 171.703125 623.996094 C 172.171875 622.5625 172.808594 621.207031 173.621094 619.9375 C 174.433594 618.632812 175.398438 617.453125 176.515625 616.394531 C 177.632812 615.339844 178.863281 614.441406 180.207031 613.695312 C 181.554688 612.953125 182.972656 612.390625 184.460938 612.007812 C 185.949219 611.625 187.460938 611.4375 189 611.441406 C 190.699219 611.453125 192.367188 611.695312 194 612.167969 C 195.632812 612.640625 197.167969 613.332031 198.609375 614.230469 C 200.050781 615.132812 201.34375 616.214844 202.480469 617.476562 C 203.621094 618.738281 204.566406 620.132812 205.320312 621.65625 C 206.425781 623.832031 207.601562 625.964844 208.851562 628.0625 C 210.105469 630.15625 211.425781 632.203125 212.820312 634.207031 C 214.214844 636.210938 215.675781 638.160156 217.203125 640.0625 C 218.730469 641.964844 220.324219 643.8125 221.980469 645.605469 C 223.632812 647.398438 225.351562 649.128906 227.125 650.804688 C 228.902344 652.476562 230.734375 654.085938 232.621094 655.632812 C 234.507812 657.179688 236.445312 658.660156 238.433594 660.074219 C 240.421875 661.488281 242.460938 662.828125 244.542969 664.101562 C 246.625 665.375 248.746094 666.574219 250.914062 667.699219 C 253.078125 668.824219 255.277344 669.875 257.515625 670.847656 C 259.753906 671.824219 262.023438 672.71875 264.320312 673.535156 C 266.621094 674.351562 268.945312 675.089844 271.296875 675.746094 C 273.648438 676.402344 276.015625 676.976562 278.40625 677.46875 C 280.796875 677.960938 283.203125 678.371094 285.621094 678.699219 C 288.039062 679.027344 290.464844 679.269531 292.902344 679.425781 C 295.335938 679.585938 297.773438 679.660156 300.214844 679.652344 L 460.742188 679.652344 L 417.824219 588.675781 L 417.425781 587.835938 L 169.621094 587.835938 C 165.925781 587.820312 162.238281 587.65625 158.558594 587.355469 C 154.875 587.050781 151.214844 586.605469 147.566406 586.019531 C 143.917969 585.429688 140.300781 584.703125 136.710938 583.835938 C 133.121094 582.972656 129.566406 581.96875 126.054688 580.828125 C 122.542969 579.6875 119.078125 578.410156 115.664062 577.003906 C 112.25 575.59375 108.894531 574.054688 105.597656 572.386719 C 102.304688 570.71875 99.078125 568.925781 95.921875 567.011719 C 92.761719 565.09375 89.683594 563.058594 86.6875 560.902344 C 83.6875 558.746094 80.773438 556.480469 77.949219 554.097656 C 75.128906 551.71875 72.398438 549.234375 69.765625 546.644531 C 67.136719 544.050781 64.609375 541.363281 62.183594 538.578125 C 59.761719 535.789062 57.449219 532.914062 55.246094 529.949219 C 53.042969 526.984375 50.960938 523.941406 48.996094 520.8125 C 47.027344 517.6875 45.1875 514.492188 43.46875 511.222656 C 41.75 507.953125 40.160156 504.625 38.699219 501.234375 C 37.238281 497.84375 35.910156 494.398438 34.714844 490.90625 C 33.519531 487.414062 32.460938 483.878906 31.539062 480.300781 C 30.617188 476.726562 29.835938 473.121094 29.191406 469.484375 C 28.550781 465.847656 28.050781 462.195312 27.6875 458.519531 C 27.328125 454.84375 27.109375 451.160156 27.035156 447.46875 C 26.960938 443.777344 27.027344 440.089844 27.238281 436.402344 C 27.449219 432.714844 27.800781 429.042969 28.296875 425.382812 C 28.789062 421.726562 29.425781 418.089844 30.199219 414.480469 C 30.972656 410.871094 31.886719 407.296875 32.941406 403.753906 C 33.992188 400.214844 35.179688 396.722656 36.5 393.273438 C 37.820312 389.828125 39.273438 386.433594 40.859375 383.101562 C 42.445312 379.765625 44.152344 376.496094 45.992188 373.292969 C 47.828125 370.089844 49.785156 366.960938 51.863281 363.910156 C 53.945312 360.855469 56.136719 357.890625 58.445312 355.007812 C 60.753906 352.125 63.171875 349.335938 65.695312 346.640625 C 68.21875 343.945312 70.84375 341.351562 73.570312 338.855469 C 76.292969 336.363281 79.109375 333.980469 82.019531 331.703125 C 114.308594 306.5 160.34375 301.164062 193.292969 301.164062 L 467.816406 301.164062 C 470.125 301.152344 472.429688 301.066406 474.730469 300.90625 C 477.03125 300.75 479.328125 300.515625 481.613281 300.207031 C 483.902344 299.898438 486.175781 299.519531 488.441406 299.066406 C 490.703125 298.609375 492.949219 298.085938 495.175781 297.484375 C 497.40625 296.886719 499.613281 296.214844 501.796875 295.476562 C 503.984375 294.734375 506.144531 293.921875 508.277344 293.042969 C 510.410156 292.164062 512.511719 291.214844 514.582031 290.199219 C 516.65625 289.183594 518.691406 288.101562 520.695312 286.953125 C 522.695312 285.804688 524.660156 284.59375 526.585938 283.320312 C 528.507812 282.046875 530.390625 280.710938 532.226562 279.316406 C 534.066406 277.921875 535.855469 276.46875 537.601562 274.957031 C 539.34375 273.445312 541.039062 271.882812 542.679688 270.261719 C 544.324219 268.640625 545.914062 266.96875 547.449219 265.25 C 548.984375 263.527344 550.460938 261.753906 551.882812 259.9375 C 553.304688 258.121094 554.664062 256.257812 555.964844 254.351562 C 557.265625 252.449219 558.503906 250.503906 559.679688 248.515625 C 559.878906 248.183594 560.085938 247.859375 560.304688 247.539062 C 560.523438 247.222656 560.753906 246.910156 560.992188 246.605469 C 561.230469 246.304688 561.476562 246.007812 561.734375 245.71875 C 561.996094 245.433594 562.261719 245.152344 562.539062 244.882812 C 562.8125 244.613281 563.097656 244.351562 563.390625 244.097656 C 563.683594 243.847656 563.984375 243.605469 564.292969 243.375 C 564.601562 243.140625 564.917969 242.917969 565.242188 242.707031 C 565.566406 242.496094 565.894531 242.292969 566.230469 242.101562 C 566.566406 241.914062 566.910156 241.734375 567.257812 241.566406 C 567.605469 241.394531 567.957031 241.238281 568.316406 241.09375 C 568.671875 240.949219 569.035156 240.8125 569.402344 240.691406 C 569.769531 240.570312 570.140625 240.460938 570.515625 240.363281 C 570.886719 240.265625 571.265625 240.179688 571.644531 240.105469 C 572.023438 240.03125 572.40625 239.96875 572.789062 239.921875 C 573.171875 239.871094 573.554688 239.835938 573.941406 239.8125 C 574.328125 239.789062 574.714844 239.777344 575.101562 239.777344 C 575.488281 239.777344 575.871094 239.792969 576.257812 239.820312 C 576.644531 239.84375 577.027344 239.882812 577.410156 239.933594 C 577.792969 239.984375 578.175781 240.050781 578.554688 240.125 C 578.933594 240.199219 579.308594 240.289062 579.683594 240.390625 C 580.054688 240.488281 580.425781 240.601562 580.792969 240.726562 C 581.15625 240.847656 581.519531 240.984375 581.875 241.132812 C 582.234375 241.28125 582.585938 241.4375 582.933594 241.609375 C 583.28125 241.78125 583.621094 241.960938 583.957031 242.152344 C 584.292969 242.347656 584.621094 242.550781 584.941406 242.761719 C 585.261719 242.976562 585.578125 243.199219 585.886719 243.433594 C 586.191406 243.667969 586.492188 243.914062 586.785156 244.167969 C 587.074219 244.421875 587.359375 244.683594 587.632812 244.953125 C 587.90625 245.226562 588.171875 245.507812 588.429688 245.796875 C 588.6875 246.085938 588.933594 246.382812 589.167969 246.6875 C 589.40625 246.992188 589.632812 247.304688 589.851562 247.625 C 590.066406 247.945312 590.273438 248.273438 590.46875 248.605469 C 591.261719 249.917969 591.867188 251.316406 592.289062 252.789062 C 592.714844 254.265625 592.9375 255.769531 592.964844 257.304688 C 592.988281 258.835938 592.816406 260.347656 592.441406 261.835938 C 592.070312 263.324219 591.507812 264.738281 590.761719 266.082031 Z M 590.761719 266.082031 " fill-opacity="1" fill-rule="nonzero"/></g></svg>