<svg xmlns="http://www.w3.org/2000/svg" xmlns:xlink="http://www.w3.org/1999/xlink" width="907" zoomAndPan="magnify" viewBox="0 0 680.25 171.000002" height="228" preserveAspectRatio="xMidYMid meet" version="1.0"><defs><g/><clipPath id="73e3dd8ebf"><path d="M 127.433594 17 L 551.703125 17 L 551.703125 151 L 127.433594 151 Z M 127.433594 17 " clip-rule="nonzero"/></clipPath></defs><g fill="#ffffff" fill-opacity="1"><g transform="translate(451.527013, 145.665203)"><g><path d="M 11.203125 -4.078125 C 11.203125 -2.640625 10.742188 -1.546875 9.828125 -0.796875 C 8.910156 -0.0546875 7.5625 0.3125 5.78125 0.3125 C 5.050781 0.3125 4.25 0.234375 3.375 0.078125 C 2.507812 -0.0664062 1.828125 -0.234375 1.328125 -0.421875 L 1.328125 -3.984375 L 2.03125 -3.984375 L 2.796875 -1.96875 C 3.566406 -1.257812 4.570312 -0.90625 5.8125 -0.90625 C 7.8125 -0.90625 8.8125 -1.765625 8.8125 -3.484375 C 8.8125 -4.742188 8.023438 -5.640625 6.453125 -6.171875 L 5.0625 -6.625 C 4.019531 -6.957031 3.257812 -7.300781 2.78125 -7.65625 C 2.3125 -8.007812 1.945312 -8.441406 1.6875 -8.953125 C 1.425781 -9.460938 1.296875 -10.078125 1.296875 -10.796875 C 1.296875 -12.078125 1.734375 -13.085938 2.609375 -13.828125 C 3.484375 -14.566406 4.664062 -14.9375 6.15625 -14.9375 C 7.21875 -14.9375 8.550781 -14.773438 10.15625 -14.453125 L 10.15625 -11.28125 L 9.421875 -11.28125 L 8.765625 -12.96875 C 8.222656 -13.445312 7.363281 -13.6875 6.1875 -13.6875 C 5.34375 -13.6875 4.703125 -13.476562 4.265625 -13.0625 C 3.828125 -12.65625 3.609375 -12.101562 3.609375 -11.40625 C 3.609375 -10.8125 3.804688 -10.3125 4.203125 -9.90625 C 4.597656 -9.507812 5.203125 -9.175781 6.015625 -8.90625 C 7.535156 -8.394531 8.523438 -8.019531 8.984375 -7.78125 C 9.453125 -7.539062 9.847656 -7.25 10.171875 -6.90625 C 10.492188 -6.5625 10.742188 -6.164062 10.921875 -5.71875 C 11.109375 -5.28125 11.203125 -4.734375 11.203125 -4.078125 Z M 11.203125 -4.078125 "/></g></g></g><g fill="#ffffff" fill-opacity="1"><g transform="translate(463.87154, 145.665203)"><g><path d="M 5.046875 -15.6875 C 5.046875 -14.613281 5.007812 -13.84375 4.9375 -13.375 C 5.6875 -13.789062 6.53125 -14.15625 7.46875 -14.46875 C 8.414062 -14.78125 9.21875 -14.9375 9.875 -14.9375 C 11.132812 -14.9375 12.082031 -14.566406 12.71875 -13.828125 C 13.363281 -13.097656 13.6875 -12.035156 13.6875 -10.640625 L 13.6875 -1.078125 L 15.453125 -0.703125 L 15.453125 0 L 9.171875 0 L 9.171875 -0.703125 L 11.109375 -1.078125 L 11.109375 -10.453125 C 11.109375 -12.234375 10.25 -13.125 8.53125 -13.125 C 7.5625 -13.125 6.398438 -12.972656 5.046875 -12.671875 L 5.046875 -1.078125 L 7.015625 -0.703125 L 7.015625 0 L 0.640625 0 L 0.640625 -0.703125 L 2.484375 -1.078125 L 2.484375 -20.921875 L 0.3125 -21.296875 L 0.3125 -21.984375 L 5.046875 -21.984375 Z M 5.046875 -15.6875 "/></g></g></g><g fill="#ffffff" fill-opacity="1"><g transform="translate(479.732006, 145.665203)"><g><path d="M 14.65625 -7.34375 C 14.65625 -2.238281 12.382812 0.3125 7.84375 0.3125 C 5.65625 0.3125 4 -0.34375 2.875 -1.65625 C 1.757812 -2.96875 1.203125 -4.863281 1.203125 -7.34375 C 1.203125 -9.800781 1.757812 -11.679688 2.875 -12.984375 C 4 -14.285156 5.695312 -14.9375 7.96875 -14.9375 C 10.175781 -14.9375 11.84375 -14.296875 12.96875 -13.015625 C 14.09375 -11.742188 14.65625 -9.851562 14.65625 -7.34375 Z M 11.875 -7.34375 C 11.875 -9.570312 11.546875 -11.1875 10.890625 -12.1875 C 10.242188 -13.1875 9.226562 -13.6875 7.84375 -13.6875 C 6.488281 -13.6875 5.507812 -13.207031 4.90625 -12.25 C 4.300781 -11.289062 4 -9.65625 4 -7.34375 C 4 -5.007812 4.304688 -3.351562 4.921875 -2.375 C 5.535156 -1.394531 6.507812 -0.90625 7.84375 -0.90625 C 9.207031 -0.90625 10.21875 -1.410156 10.875 -2.421875 C 11.539062 -3.441406 11.875 -5.082031 11.875 -7.34375 Z M 11.875 -7.34375 "/></g></g></g><g fill="#ffffff" fill-opacity="1"><g transform="translate(495.592471, 145.665203)"><g><path d="M 4.03125 -7.3125 L 4.03125 -7.046875 C 4.03125 -5.617188 4.1875 -4.507812 4.5 -3.71875 C 4.8125 -2.925781 5.296875 -2.320312 5.953125 -1.90625 C 6.609375 -1.5 7.46875 -1.296875 8.53125 -1.296875 C 9.09375 -1.296875 9.753906 -1.34375 10.515625 -1.4375 C 11.285156 -1.53125 11.914062 -1.632812 12.40625 -1.75 L 12.40625 -0.875 C 11.914062 -0.5625 11.242188 -0.285156 10.390625 -0.046875 C 9.535156 0.191406 8.664062 0.3125 7.78125 0.3125 C 5.519531 0.3125 3.863281 -0.296875 2.8125 -1.515625 C 1.757812 -2.734375 1.234375 -4.6875 1.234375 -7.375 C 1.234375 -9.914062 1.765625 -11.8125 2.828125 -13.0625 C 3.898438 -14.3125 5.421875 -14.9375 7.390625 -14.9375 C 11.117188 -14.9375 12.984375 -12.820312 12.984375 -8.59375 L 12.984375 -7.3125 Z M 7.390625 -13.6875 C 6.316406 -13.6875 5.492188 -13.253906 4.921875 -12.390625 C 4.347656 -11.523438 4.0625 -10.25 4.0625 -8.5625 L 10.28125 -8.5625 C 10.28125 -10.40625 10.039062 -11.71875 9.5625 -12.5 C 9.09375 -13.289062 8.367188 -13.6875 7.390625 -13.6875 Z M 7.390625 -13.6875 "/></g></g></g><g fill="#ffffff" fill-opacity="1"><g transform="translate(509.671737, 145.665203)"><g><path d="M 11.203125 -4.078125 C 11.203125 -2.640625 10.742188 -1.546875 9.828125 -0.796875 C 8.910156 -0.0546875 7.5625 0.3125 5.78125 0.3125 C 5.050781 0.3125 4.25 0.234375 3.375 0.078125 C 2.507812 -0.0664062 1.828125 -0.234375 1.328125 -0.421875 L 1.328125 -3.984375 L 2.03125 -3.984375 L 2.796875 -1.96875 C 3.566406 -1.257812 4.570312 -0.90625 5.8125 -0.90625 C 7.8125 -0.90625 8.8125 -1.765625 8.8125 -3.484375 C 8.8125 -4.742188 8.023438 -5.640625 6.453125 -6.171875 L 5.0625 -6.625 C 4.019531 -6.957031 3.257812 -7.300781 2.78125 -7.65625 C 2.3125 -8.007812 1.945312 -8.441406 1.6875 -8.953125 C 1.425781 -9.460938 1.296875 -10.078125 1.296875 -10.796875 C 1.296875 -12.078125 1.734375 -13.085938 2.609375 -13.828125 C 3.484375 -14.566406 4.664062 -14.9375 6.15625 -14.9375 C 7.21875 -14.9375 8.550781 -14.773438 10.15625 -14.453125 L 10.15625 -11.28125 L 9.421875 -11.28125 L 8.765625 -12.96875 C 8.222656 -13.445312 7.363281 -13.6875 6.1875 -13.6875 C 5.34375 -13.6875 4.703125 -13.476562 4.265625 -13.0625 C 3.828125 -12.65625 3.609375 -12.101562 3.609375 -11.40625 C 3.609375 -10.8125 3.804688 -10.3125 4.203125 -9.90625 C 4.597656 -9.507812 5.203125 -9.175781 6.015625 -8.90625 C 7.535156 -8.394531 8.523438 -8.019531 8.984375 -7.78125 C 9.453125 -7.539062 9.847656 -7.25 10.171875 -6.90625 C 10.492188 -6.5625 10.742188 -6.164062 10.921875 -5.71875 C 11.109375 -5.28125 11.203125 -4.734375 11.203125 -4.078125 Z M 11.203125 -4.078125 "/></g></g></g><g clip-path="url(#73e3dd8ebf)"><path fill="#e8d9c0" d="M 521.875 107.976562 C 518.179688 109.375 514.382812 110.382812 510.480469 110.992188 L 508.648438 111.09375 C 504.339844 110.550781 500.503906 108.277344 497.1875 104.28125 C 493.3125 99.671875 490.109375 94.566406 486.933594 89.464844 C 484.785156 86.019531 482.03125 80.324219 477.351562 79.921875 L 474.785156 79.648438 C 471.464844 80.101562 464.121094 83.476562 451.582031 100.613281 L 438.117188 117.960938 C 434.59375 122.984375 425.6875 135.441406 423.796875 135.601562 C 423.503906 135.648438 423.234375 135.582031 422.996094 135.40625 C 422.492188 134.90625 422.9375 133.636719 423.328125 132.789062 C 423.515625 132.363281 423.710938 131.945312 423.882812 131.503906 L 437.554688 96.296875 C 438.054688 94.996094 438.558594 93.472656 439.027344 91.730469 C 439.492188 90.277344 439.730469 88.789062 439.742188 87.265625 C 439.71875 86.117188 439.339844 85.097656 438.609375 84.210938 C 437.601562 82.996094 435.847656 82.996094 434.800781 82.960938 C 434.546875 82.960938 434.410156 82.960938 434.238281 82.960938 C 431.472656 83.195312 429.308594 87.859375 428.34375 90.371094 C 423.503906 98.824219 418.410156 105.804688 413.0625 111.3125 C 406.039062 118.445312 398.339844 124.757812 389.96875 130.253906 C 382.804688 134.941406 374.847656 138.726562 366.324219 140.078125 C 372.511719 136.148438 377.339844 132.230469 380.808594 128.3125 C 390.144531 118.523438 402.4375 96.910156 386.285156 87.019531 C 373.03125 78.886719 355.296875 85.945312 344.597656 95.082031 C 341.410156 97.789062 337.109375 101.820312 331.699219 107.179688 C 320.507812 118.179688 308.765625 129.613281 294.242188 136.089844 C 290.0625 137.996094 285.703125 139.328125 281.164062 140.078125 C 287.355469 136.148438 292.1875 132.230469 295.664062 128.3125 C 303.890625 119.679688 313.863281 104.253906 306.515625 92.144531 C 305.605469 90.707031 304.496094 89.441406 303.183594 88.351562 C 301.875 87.261719 300.429688 86.398438 298.851562 85.761719 C 285.367188 79.984375 269.929688 86.265625 259.433594 95.085938 C 258.207031 96.125 254.28125 99.785156 246.527344 107.183594 C 243.507812 110.078125 240.804688 112.679688 238.519531 114.875 L 235 118.28125 L 234.96875 118.304688 C 233.867188 119.609375 232.695312 120.933594 231.449219 122.285156 C 230.042969 123.800781 228.542969 125.339844 226.949219 126.898438 C 224.351562 129.433594 221.792969 131.714844 219.34375 133.765625 C 215.203125 137.207031 210.765625 140.222656 206.039062 142.808594 C 202.828125 144.550781 199.476562 145.953125 195.980469 147.015625 L 197.394531 143.78125 L 197.46875 143.609375 L 198.574219 140.957031 L 211.652344 109.785156 L 218.066406 109.785156 C 218.476562 109.789062 218.878906 109.734375 219.273438 109.625 C 219.667969 109.515625 220.039062 109.351562 220.386719 109.136719 C 220.734375 108.921875 221.042969 108.664062 221.320312 108.359375 C 221.59375 108.058594 221.820312 107.722656 222 107.355469 C 222.140625 107.039062 222.242188 106.714844 222.300781 106.375 C 222.359375 106.035156 222.375 105.695312 222.351562 105.351562 C 222.324219 105.007812 222.253906 104.671875 222.144531 104.347656 C 222.035156 104.019531 221.886719 103.710938 221.699219 103.421875 C 221.511719 103.132812 221.289062 102.871094 221.035156 102.640625 C 220.785156 102.40625 220.503906 102.207031 220.203125 102.042969 C 219.898438 101.878906 219.582031 101.753906 219.246094 101.667969 C 218.914062 101.585938 218.574219 101.542969 218.226562 101.542969 L 215.050781 101.542969 L 245.832031 28.195312 C 247.148438 25.066406 245.597656 21.519531 242.3125 20.6875 C 241.683594 20.523438 241.042969 20.472656 240.398438 20.539062 C 239.75 20.605469 239.136719 20.78125 238.550781 21.066406 C 237.96875 21.355469 237.453125 21.734375 237.007812 22.207031 C 236.5625 22.679688 236.210938 23.21875 235.960938 23.816406 L 204.570312 98.609375 L 203.34375 101.542969 L 180.027344 101.542969 C 178.824219 99.171875 177.449219 96.90625 175.894531 94.746094 C 175.460938 94.15625 175.042969 93.589844 174.601562 93.042969 C 172.621094 90.574219 170.34375 88.429688 167.761719 86.601562 L 179.933594 58.382812 C 181.050781 55.847656 182.125 53.230469 183.152344 50.53125 C 184.160156 47.84375 185.070312 45.1875 185.84375 42.558594 C 186.617188 39.933594 187.242188 37.394531 187.746094 34.9375 C 188.21875 32.695312 188.464844 30.425781 188.484375 28.132812 C 188.484375 24.925781 187.746094 22.277344 186.246094 20.195312 C 184.746094 18.109375 182.292969 17.078125 178.828125 17.078125 C 175.90625 17.078125 172.289062 17.921875 167.992188 19.589844 C 165.183594 20.671875 162.457031 21.933594 159.8125 23.375 C 157.992188 24.378906 152.542969 27.5 144.414062 34.601562 C 142.324219 36.4375 130.863281 46.453125 132.402344 49.023438 C 132.714844 49.527344 133.160156 49.84375 133.738281 49.972656 C 134.742188 50.136719 135.691406 49.179688 136.046875 48.828125 C 140.105469 44.710938 151 34.984375 153.953125 32.488281 C 156.515625 30.433594 159.199219 28.546875 162 26.832031 C 167.703125 23.300781 172.75 21.199219 177.148438 20.527344 C 177.566406 20.5 177.964844 20.585938 178.34375 20.777344 C 178.71875 20.96875 179.019531 21.246094 179.246094 21.601562 C 179.75 22.445312 179.984375 23.355469 179.945312 24.339844 C 179.875 26.519531 179.515625 28.652344 178.871094 30.738281 C 178.171875 33.28125 177.253906 36.054688 176.144531 39.046875 C 175.039062 42.042969 173.742188 45.210938 172.316406 48.496094 C 170.894531 51.78125 169.492188 55.109375 168.128906 58.382812 L 158.117188 81.667969 C 154.460938 80.527344 150.714844 79.972656 146.878906 80 C 144.9375 80.035156 143.015625 80.257812 141.117188 80.664062 C 138.855469 81.101562 136.734375 81.902344 134.753906 83.066406 C 132.703125 84.277344 130.984375 85.851562 129.597656 87.789062 C 128.15625 89.777344 127.433594 92.347656 127.433594 95.503906 C 127.4375 97.203125 127.742188 98.84375 128.355469 100.425781 C 129.042969 102.136719 130.078125 103.605469 131.457031 104.828125 C 133.164062 106.3125 135.085938 107.425781 137.222656 108.167969 C 140.097656 109.160156 143.050781 109.703125 146.089844 109.796875 L 140.542969 122.789062 L 137.664062 129.515625 L 132.066406 142.574219 C 130.75 145.640625 132.238281 149.105469 135.46875 149.96875 C 136.082031 150.136719 136.707031 150.1875 137.34375 150.128906 C 137.976562 150.070312 138.582031 149.902344 139.15625 149.625 C 139.730469 149.347656 140.238281 148.980469 140.679688 148.523438 C 141.121094 148.0625 141.464844 147.539062 141.71875 146.957031 L 157.734375 109.78125 L 179.566406 109.78125 C 180.878906 114.015625 181.824219 118.332031 182.402344 122.726562 C 182.464844 123.230469 182.539062 123.707031 182.585938 124.210938 C 183.136719 128.972656 183.398438 133.753906 183.375 138.550781 C 183.375 141.140625 183.308594 143.113281 183.273438 144.078125 L 183.273438 144.179688 C 183.25 144.605469 183.273438 145.03125 183.339844 145.457031 C 183.40625 145.878906 183.519531 146.292969 183.671875 146.695312 C 183.824219 147.09375 184.015625 147.476562 184.25 147.835938 C 184.484375 148.195312 184.75 148.53125 185.050781 148.835938 C 185.355469 149.140625 185.683594 149.410156 186.042969 149.644531 C 186.402344 149.882812 186.78125 150.078125 187.183594 150.234375 C 187.582031 150.394531 187.992188 150.507812 188.417969 150.578125 C 188.839844 150.648438 189.269531 150.675781 189.695312 150.660156 C 190.371094 150.632812 191.039062 150.578125 191.710938 150.519531 C 191.710938 150.566406 191.710938 150.613281 191.710938 150.660156 C 192.382812 150.558594 193.0625 150.425781 193.746094 150.285156 C 194.027344 150.246094 194.304688 150.222656 194.585938 150.175781 L 194.621094 150.097656 C 198.019531 149.296875 201.289062 148.136719 204.433594 146.625 C 209.710938 144.132812 215.148438 140.589844 220.753906 135.996094 L 221.207031 135.609375 C 222.714844 134.363281 224.222656 133.054688 225.757812 131.660156 L 226.554688 130.914062 C 230.402344 127.398438 233.960938 123.90625 237.1875 120.476562 L 237.21875 120.445312 C 237.609375 120.09375 237.996094 119.703125 238.402344 119.3125 C 238.390625 119.335938 238.375 119.355469 238.355469 119.375 C 235.539062 125.058594 234.121094 131.066406 234.101562 137.40625 C 234.054688 139.976562 234.65625 142.386719 235.910156 144.636719 C 238.183594 148.855469 242.449219 150.976562 248.816406 150.976562 C 256.363281 150.976562 265.191406 148.410156 275.300781 143.285156 L 276.210938 143.285156 C 288.996094 143.285156 302.679688 137.046875 317.261719 124.574219 C 317.484375 124.421875 317.699219 124.253906 317.902344 124.074219 C 319.933594 122.671875 321.820312 121.089844 323.550781 119.324219 C 323.480469 119.476562 323.402344 119.613281 323.328125 119.785156 C 320.632812 125.355469 319.277344 131.234375 319.253906 137.421875 C 319.203125 139.992188 319.804688 142.402344 321.058594 144.652344 C 323.328125 148.871094 327.597656 150.992188 333.96875 150.992188 C 341.507812 150.992188 350.335938 148.425781 360.449219 143.300781 L 361.363281 143.300781 C 372.980469 143.300781 383.570312 138.273438 392.914062 131.746094 C 402.261719 125.214844 411.878906 117.773438 419.183594 109.011719 C 420.421875 107.503906 422.496094 105.589844 423.359375 103.773438 L 416.195312 122.148438 L 413.382812 129.328125 C 412.121094 132.519531 411.125 135.214844 410.402344 137.402344 C 409.753906 139.253906 409.417969 141.164062 409.394531 143.128906 C 409.390625 143.9375 409.554688 144.714844 409.882812 145.453125 C 410.214844 146.195312 410.679688 146.832031 411.285156 147.375 C 412.21875 148.203125 413.304688 148.695312 414.539062 148.855469 C 415.027344 148.925781 415.519531 148.953125 416.015625 148.945312 C 417.222656 148.90625 418.40625 148.714844 419.566406 148.367188 C 420.371094 148.113281 421.140625 147.777344 421.875 147.363281 C 422.242188 147.152344 422.625 146.921875 422.992188 146.675781 C 424.316406 145.761719 425.53125 144.71875 426.636719 143.550781 C 428.128906 141.988281 429.519531 140.34375 430.8125 138.617188 L 439.679688 127.097656 L 439.835938 126.902344 L 444.296875 121.109375 L 444.800781 120.4375 C 446.703125 117.894531 448.546875 115.324219 450.335938 112.71875 C 450.605469 112.339844 450.886719 111.945312 451.183594 111.554688 C 452.398438 109.851562 453.75 108.082031 455.285156 106.203125 C 458.113281 102.769531 460.582031 99.789062 462.558594 97.433594 C 464.535156 95.078125 465.957031 93.3125 466.808594 92.257812 C 466.917969 92.132812 469.375 89.078125 472.800781 87.738281 C 473.246094 87.585938 473.675781 87.492188 473.675781 87.492188 C 473.816406 87.464844 473.957031 87.449219 474.101562 87.441406 C 477.160156 87.144531 479.730469 90.222656 482.863281 95.234375 L 485.527344 99.523438 C 488.597656 105.050781 491.9375 109.570312 495.476562 113.019531 C 500.078125 117.472656 506.25 116.589844 508.71875 116.613281 C 524.691406 116.773438 536.703125 104.125 541.867188 98.644531 C 542.363281 98.121094 542.847656 97.589844 543.324219 97.050781 C 543.78125 96.550781 544.226562 96.011719 544.671875 95.480469 C 545.113281 94.945312 545.511719 94.472656 545.917969 93.941406 C 546.324219 93.410156 546.6875 92.9375 547.066406 92.433594 C 547.441406 91.933594 547.769531 91.46875 548.109375 90.984375 C 548.453125 90.496094 548.753906 90.058594 549.066406 89.589844 C 549.378906 89.125 549.648438 88.707031 549.9375 88.265625 C 550.222656 87.824219 550.441406 87.4375 550.710938 87.015625 C 550.984375 86.59375 551.179688 86.242188 551.40625 85.847656 L 551.550781 85.601562 C 551.644531 85.476562 551.691406 85.335938 551.699219 85.179688 C 551.695312 85.019531 551.640625 84.878906 551.53125 84.757812 C 551.410156 84.644531 551.269531 84.585938 551.105469 84.582031 C 550.96875 84.574219 550.839844 84.605469 550.722656 84.667969 C 550.640625 84.714844 550.574219 84.78125 550.53125 84.863281 L 550.273438 85.234375 L 549.722656 86.007812 L 549.128906 86.824219 C 548.914062 87.105469 548.703125 87.390625 548.488281 87.667969 C 548.273438 87.941406 548.035156 88.253906 547.804688 88.546875 L 547.074219 89.449219 C 546.820312 89.761719 546.570312 90.074219 546.300781 90.378906 L 545.480469 91.328125 L 544.609375 92.292969 C 544.308594 92.625 544 92.945312 543.695312 93.273438 C 543.386719 93.601562 543.054688 93.9375 542.730469 94.277344 C 542.402344 94.621094 542.058594 94.945312 541.722656 95.28125 C 541.386719 95.621094 541.019531 95.957031 540.660156 96.289062 C 540.304688 96.621094 539.925781 96.957031 539.550781 97.292969 C 539.171875 97.628906 538.78125 97.960938 538.394531 98.296875 C 538.003906 98.632812 537.589844 98.957031 537.179688 99.277344 C 536.773438 99.597656 536.339844 99.933594 535.917969 100.25 C 535.496094 100.566406 535.046875 100.894531 534.605469 101.207031 C 534.164062 101.515625 533.699219 101.839844 533.238281 102.144531 C 532.773438 102.453125 532.296875 102.761719 531.820312 103.066406 C 531.339844 103.367188 530.84375 103.664062 530.351562 103.953125 C 529.855469 104.246094 529.34375 104.535156 528.839844 104.8125 C 528.335938 105.089844 527.792969 105.375 527.261719 105.640625 C 526.726562 105.90625 526.179688 106.179688 525.632812 106.433594 C 525.082031 106.691406 524.507812 106.9375 523.941406 107.1875 C 523.371094 107.441406 522.785156 107.691406 522.199219 107.898438 Z M 149.640625 101.542969 L 145.113281 101.542969 C 143.230469 101.582031 141.386719 101.332031 139.582031 100.792969 C 138.207031 100.382812 136.953125 99.734375 135.824219 98.84375 C 134.886719 98.117188 134.160156 97.222656 133.636719 96.15625 C 133.179688 95.21875 132.945312 94.230469 132.9375 93.1875 C 132.9375 90.390625 134.117188 88.121094 136.457031 86.316406 C 138.796875 84.511719 142.035156 83.632812 146.117188 83.632812 C 149.722656 83.59375 153.253906 84.085938 156.714844 85.105469 Z M 161.347656 101.542969 L 166.378906 89.9375 C 168.753906 91.675781 170.820312 93.722656 172.578125 96.082031 C 173.894531 97.800781 175.046875 99.621094 176.046875 101.542969 Z M 187.097656 140.046875 C 187.140625 139.4375 187.183594 138.832031 187.183594 138.296875 L 187.183594 136.515625 C 187.1875 131.921875 186.886719 127.34375 186.285156 122.789062 C 185.683594 118.375 184.710938 114.042969 183.363281 109.796875 L 199.816406 109.796875 L 194.230469 123.078125 Z M 268.082031 136.246094 C 268.082031 137.753906 269.003906 138.957031 270.792969 139.878906 C 271.21875 140.121094 271.671875 140.265625 272.15625 140.320312 C 266.730469 143.1875 262.5625 144.617188 259.703125 144.617188 C 256.933594 144.652344 254.335938 144.011719 251.898438 142.703125 C 249.550781 141.425781 248.378906 139.238281 248.378906 136.136719 C 248.367188 133.0625 248.894531 130.085938 249.964844 127.203125 C 252.527344 119.070312 257.695312 111.386719 265.464844 104.144531 C 270.953125 99.027344 278.328125 94.90625 285.742188 93.554688 C 293.535156 92.132812 302.929688 95.738281 302.929688 104.9375 C 302.929688 108.925781 301.046875 113.785156 297.28125 119.507812 C 296.679688 116.179688 294.183594 114.519531 289.796875 114.523438 C 285.425781 114.523438 281.117188 116.414062 276.914062 120.179688 C 271.007812 125.617188 268.058594 130.972656 268.058594 136.246094 Z M 353.226562 136.246094 C 353.226562 137.753906 354.136719 138.957031 355.945312 139.878906 C 356.363281 140.117188 356.8125 140.261719 357.292969 140.320312 C 351.863281 143.1875 347.71875 144.617188 344.863281 144.617188 C 342.09375 144.65625 339.488281 144.015625 337.050781 142.703125 C 334.707031 141.425781 333.53125 139.238281 333.53125 136.136719 C 333.519531 133.0625 334.054688 130.082031 335.128906 127.203125 C 337.695312 119.070312 342.863281 111.386719 350.632812 104.144531 C 357.949219 97.324219 370.839844 90.046875 381.03125 94.601562 C 392.160156 99.566406 387.457031 111.894531 382.441406 119.515625 C 381.820312 116.199219 379.3125 114.539062 374.917969 114.539062 C 370.523438 114.539062 366.226562 116.425781 362.019531 120.195312 C 356.144531 125.621094 353.207031 130.972656 353.203125 136.246094 Z M 353.226562 136.246094 " fill-opacity="1" fill-rule="nonzero"/></g></svg>